<svg id="line_Icons" height="512" viewBox="0 0 74 74" width="512" xmlns="http://www.w3.org/2000/svg" data-name="line Icons"><path d="m68.956 72h-13.673a1 1 0 0 1 -1-1v-25.378a1 1 0 0 1 1-1h13.673a1 1 0 0 1 1 1v25.378a1 1 0 0 1 -1 1zm-12.673-2h11.673v-23.378h-11.673z"/><path d="m43.836 72h-13.672a1 1 0 0 1 -1-1v-47.219a1 1 0 0 1 1-1h13.672a1 1 0 0 1 1 1v47.219a1 1 0 0 1 -1 1zm-12.672-2h11.672v-45.219h-11.672z"/><path d="m18.717 72h-13.673a1 1 0 0 1 -1-1v-68a1 1 0 0 1 1-1h13.673a1 1 0 0 1 1 1v68a1 1 0 0 1 -1 1zm-12.673-2h11.673v-66h-11.673z"/></svg>