<svg id="Capa_1" enable-background="new 0 0 512 512" height="512" viewBox="0 0 512 512" width="512" xmlns="http://www.w3.org/2000/svg"><path id="SOLID-16" d="m256.025 8.601c-19.077 0-38.158 6.743-53.205 20.202l-158.216 141.564c-28.366 25.371-44.604 61.752-44.604 99.809v159.116c0 40.558 33.35 74.107 73.907 74.107h105.26v-127.962c0-42.116 34.841-76.958 76.958-76.958s76.708 34.841 76.707 76.958v127.962h105.26c40.558 0 73.907-33.549 73.907-74.107v-159.116c0-38.058-16.238-74.438-44.604-99.81l-158.165-141.563c-15.047-13.459-34.128-20.202-53.205-20.202z"/></svg>