<svg viewBox="0 0 64 64" xmlns="http://www.w3.org/2000/svg"><g id="_01_Wallet" data-name="01 Wallet"><g><path d="m53 13h-45a1 1 0 0 1 0-2h45a1 1 0 0 1 0 2z"/><path d="m59 18h-51a6 6 0 0 1 0-12h47a3 3 0 0 1 3 3v7a1 1 0 0 0 2 0v-7a5.006 5.006 0 0 0 -5-5h-47a8.009 8.009 0 0 0 -8 8v43a5.006 5.006 0 0 0 5 5h54a5.006 5.006 0 0 0 5-5v-5a1 1 0 0 0 -2 0v5a3 3 0 0 1 -3 3h-54a3 3 0 0 1 -3-3v-37.726a7.976 7.976 0 0 0 6 2.726h51a3 3 0 0 1 3 3v7h-16a9 9 0 0 0 0 18h17a1 1 0 0 0 1-1v-24a5.006 5.006 0 0 0 -5-5zm3 28h-16a7 7 0 0 1 0-14h16z"/><path d="m47 43a4 4 0 1 1 4-4 4 4 0 0 1 -4 4zm0-6a2 2 0 1 0 2 2 2 2 0 0 0 -2-2z"/></g></g></svg>