<svg fill="none" height="24" viewBox="0 0 24 24" width="24" xmlns="http://www.w3.org/2000/svg"><path clip-rule="evenodd" d="m12 4c-2.20914 0-4 1.79086-4 4 0 2.2091 1.79086 4 4 4 2.2091 0 4-1.7909 4-4 0-2.20914-1.7909-4-4-4zm-6 4c0-3.31371 2.68629-6 6-6 3.3137 0 6 2.68629 6 6 0 3.3137-2.6863 6-6 6-3.31371 0-6-2.6863-6-6zm-.18685 8.6165c1.63028-1.019 3.82027-1.6165 6.18685-1.6165 2.3666 0 4.5566.5975 6.1869 1.6165 1.6161 1.0101 2.8131 2.5336 2.8131 4.3835 0 .5523-.4477 1-1 1s-1-.4477-1-1c0-.9115-.5939-1.888-1.8731-2.6875-1.2652-.7907-3.0752-1.3125-5.1269-1.3125s-3.86171.5218-5.12686 1.3125c-1.27923.7995-1.87314 1.776-1.87314 2.6875 0 .5523-.44772 1-1 1s-1-.4477-1-1c0-1.8499 1.19695-3.3734 2.81315-4.3835z" fill="rgb(0,0,0)" fill-rule="evenodd"/></svg>